<svg xmlns="http://www.w3.org/2000/svg" version="1.1" xmlns:xlink="http://www.w3.org/1999/xlink" xmlns:svgjs="http://svgjs.com/svgjs" width="512" height="512" x="0" y="0" viewBox="0 0 16.933333 16.933334" style="enable-background:new 0 0 512 512" xml:space="preserve" class=""><g><g id="layer1" transform="translate(0 -280.067)"><g id="g11665" transform="translate(-49.742 280.067)"><path id="path11639" d="m62.177734 3.96875c-.43516 0-.794921.3578075-.794922.7929688v.5292968h1.587891v-.5292968c0-.4351625-.357808-.7929688-.792969-.7929688z" fill="#ff6b6b" font-variant-ligatures="normal" font-variant-position="normal" font-variant-caps="normal" font-variant-numeric="normal" font-variant-alternates="normal" font-feature-settings="normal" text-indent="0" text-align="start" text-decoration-line="none" text-decoration-style="solid" text-decoration-color="#000000" text-transform="none" text-orientation="mixed" white-space="normal" shape-padding="0" isolation="auto" mix-blend-mode="normal" solid-color="#000000" solid-opacity="1" vector-effect="none" data-original="#ff6b6b"></path><path id="path11641" d="m193 13c-1.64471 0-2.99805 1.351389-2.99805 2.996094l-.00195 28.003905h59.99805s.004-7.561711.004-7.998046c-.00005-.266156-.10619-.521315-.29492-.708984l-3.82422-3.824219-2.92187-9.757812c-.48756-1.628246-1.51094-2.708985-2.96104-2.708985h-12.00391v-3.005859c0-1.644705-1.35138-2.996094-2.99609-2.996094z" fill="#dbe9ee" transform="scale(.265)" font-variant-ligatures="normal" font-variant-position="normal" font-variant-caps="normal" font-variant-numeric="normal" font-variant-alternates="normal" font-feature-settings="normal" text-indent="0" text-align="start" text-decoration-line="none" text-decoration-style="solid" text-decoration-color="#000000" text-transform="none" text-orientation="mixed" white-space="normal" shape-padding="0" isolation="auto" mix-blend-mode="normal" solid-color="#000000" solid-opacity="1" vector-effect="none" data-original="#dbe9ee" class=""></path><path id="path11643" d="m61.119141 6.0839844a.26460981.26460981 0 0 0 -.265625.265625v2.1171875a.26460981.26460981 0 0 0 .265625.2636719h2.597656a.26460981.26460981 0 0 0 .253906-.3398438l-.634765-2.1171875a.26460981.26460981 0 0 0 -.253907-.1894531z" fill="#33b9ef" font-variant-ligatures="normal" font-variant-position="normal" font-variant-caps="normal" font-variant-numeric="normal" font-variant-alternates="normal" font-feature-settings="normal" text-indent="0" text-align="start" text-decoration-line="none" text-decoration-style="solid" text-decoration-color="#000000" text-transform="none" text-orientation="mixed" white-space="normal" shape-padding="0" isolation="auto" mix-blend-mode="normal" solid-color="#000000" solid-opacity="1" vector-effect="none" data-original="#33b9ef"></path><path id="path11645" d="m190 42.999999.002 4.996095c-.003.553027.44307 1.003656.9961 1.005859h58c.55608.0021 1.00711-.449782 1.0039-1.005859l-.002-4.996095z" fill="#ff6b6b" transform="scale(.265)" font-variant-ligatures="normal" font-variant-position="normal" font-variant-caps="normal" font-variant-numeric="normal" font-variant-alternates="normal" font-feature-settings="normal" text-indent="0" text-align="start" text-decoration-line="none" text-decoration-style="solid" text-decoration-color="#000000" text-transform="none" text-orientation="mixed" white-space="normal" shape-padding="0" isolation="auto" mix-blend-mode="normal" solid-color="#000000" solid-opacity="1" vector-effect="none" data-original="#ff6b6b"></path><path id="path11647" d="m62.707031 10.847656c-1.019743 0-1.853515.83182-1.853515 1.851563 0 1.019742.833771 1.853515 1.853515 1.853515 1.019742 0 1.851563-.833773 1.851563-1.853515 0-1.019743-.831821-1.851563-1.851563-1.851563z" fill="#33658a" font-variant-ligatures="normal" font-variant-position="normal" font-variant-caps="normal" font-variant-numeric="normal" font-variant-alternates="normal" font-feature-settings="normal" text-indent="0" text-align="start" text-decoration-line="none" text-decoration-style="solid" text-decoration-color="#000000" text-transform="none" text-orientation="mixed" white-space="normal" shape-padding="0" isolation="auto" mix-blend-mode="normal" solid-color="#000000" solid-opacity="1" vector-effect="none" data-original="#33658a"></path><path id="path11649" d="m62.707031 11.90625c-.435233 0-.794905.357737-.794922.792969 0 .435239.35968.794922.794922.794922.435248 0 .792969-.359682.792969-.794922 0-.435245-.357729-.792969-.792969-.792969z" fill="#dbe9ee" font-variant-ligatures="normal" font-variant-position="normal" font-variant-caps="normal" font-variant-numeric="normal" font-variant-alternates="normal" font-feature-settings="normal" text-indent="0" text-align="start" text-decoration-line="none" text-decoration-style="solid" text-decoration-color="#000000" text-transform="none" text-orientation="mixed" white-space="normal" shape-padding="0" isolation="auto" mix-blend-mode="normal" solid-color="#000000" solid-opacity="1" vector-effect="none" data-original="#dbe9ee" class=""></path><path id="path11651" d="m53.710938 10.847656c-1.019742 0-1.853516.83182-1.853516 1.851563 0 1.019742.833773 1.853515 1.853516 1.853515 1.019742 0 1.851562-.833773 1.851562-1.853515 0-1.019743-.831821-1.851563-1.851562-1.851563z" fill="#33658a" font-variant-ligatures="normal" font-variant-position="normal" font-variant-caps="normal" font-variant-numeric="normal" font-variant-alternates="normal" font-feature-settings="normal" text-indent="0" text-align="start" text-decoration-line="none" text-decoration-style="solid" text-decoration-color="#000000" text-transform="none" text-orientation="mixed" white-space="normal" shape-padding="0" isolation="auto" mix-blend-mode="normal" solid-color="#000000" solid-opacity="1" vector-effect="none" data-original="#33658a"></path><path id="path11653" d="m53.710938 11.90625c-.435234 0-.794906.357735-.794922.792969 0 .435245.359683.794922.794922.794922.435248 0 .792985-.359672.792968-.794922 0-.435245-.357731-.792969-.792968-.792969z" fill="#dbe9ee" font-variant-ligatures="normal" font-variant-position="normal" font-variant-caps="normal" font-variant-numeric="normal" font-variant-alternates="normal" font-feature-settings="normal" text-indent="0" text-align="start" text-decoration-line="none" text-decoration-style="solid" text-decoration-color="#000000" text-transform="none" text-orientation="mixed" white-space="normal" shape-padding="0" isolation="auto" mix-blend-mode="normal" solid-color="#000000" solid-opacity="1" vector-effect="none" data-original="#dbe9ee" class=""></path><g fill="#ff6b6b"><path id="path11655" d="m61.912109 2.6464844v.5292968c0 .3528645.529297.3528645.529297 0v-.5292968c0-.3630632-.529297-.368925-.529297 0z" font-variant-ligatures="normal" font-variant-position="normal" font-variant-caps="normal" font-variant-numeric="normal" font-variant-alternates="normal" font-feature-settings="normal" text-indent="0" text-align="start" text-decoration-line="none" text-decoration-style="solid" text-decoration-color="#000000" text-transform="none" text-orientation="mixed" white-space="normal" shape-padding="0" isolation="auto" mix-blend-mode="normal" solid-color="#000000" solid-opacity="1" vector-effect="none" fill="#ff6b6b" data-original="#ff6b6b"></path><path id="path11657" d="m63.271484 2.8671875-.265625.4589844c-.177175.3060142.28181.5716392.458985.265625l.263672-.4589844c.164527-.2863986-.246897-.5712759-.457032-.265625z" font-variant-ligatures="normal" font-variant-position="normal" font-variant-caps="normal" font-variant-numeric="normal" font-variant-alternates="normal" font-feature-settings="normal" text-indent="0" text-align="start" text-decoration-line="none" text-decoration-style="solid" text-decoration-color="#000000" text-transform="none" text-orientation="mixed" white-space="normal" shape-padding="0" isolation="auto" mix-blend-mode="normal" solid-color="#000000" solid-opacity="1" vector-effect="none" fill="#ff6b6b" data-original="#ff6b6b"></path><path id="path11659" d="m60.625 3.1328125.263672.4589844c.177083.3059892.636067.040364.458984-.265625 0 0-.17545-.3061802-.263672-.4589844-.1769-.3063991-.641097-.051386-.458984.265625z" font-variant-ligatures="normal" font-variant-position="normal" font-variant-caps="normal" font-variant-numeric="normal" font-variant-alternates="normal" font-feature-settings="normal" text-indent="0" text-align="start" text-decoration-line="none" text-decoration-style="solid" text-decoration-color="#000000" text-transform="none" text-orientation="mixed" white-space="normal" shape-padding="0" isolation="auto" mix-blend-mode="normal" solid-color="#000000" solid-opacity="1" vector-effect="none" fill="#ff6b6b" data-original="#ff6b6b"></path></g><path id="path11661" d="m61.119141 9.2597656a.26464845.26464845 0 1 0 0 .5292969h.529297a.26464845.26464845 0 1 0 0-.5292969z" fill="#c8d4d9" font-variant-ligatures="normal" font-variant-position="normal" font-variant-caps="normal" font-variant-numeric="normal" font-variant-alternates="normal" font-feature-settings="normal" text-indent="0" text-align="start" text-decoration-line="none" text-decoration-style="solid" text-decoration-color="#000000" text-transform="none" text-orientation="mixed" white-space="normal" shape-padding="0" isolation="auto" mix-blend-mode="normal" solid-color="#000000" solid-opacity="1" vector-effect="none" data-original="#c8d4d9"></path><path id="path11663" d="m54.769531 5.8203125a.26460981.26460981 0 0 0 -.265625.265625v.7929687h-.792968a.26460981.26460981 0 0 0 -.265626.265625v1.0566407a.26460981.26460981 0 0 0 .265626.265625h.792968v.7929687a.26460981.26460981 0 0 0 .265625.265625h1.056641a.26460981.26460981 0 0 0 .265625-.265625v-.7929687h.792969a.26460981.26460981 0 0 0 .265625-.265625v-1.0566407a.26460981.26460981 0 0 0 -.265625-.265625h-.792969v-.7929687a.26460981.26460981 0 0 0 -.265625-.265625z" fill="#ff6b6b" font-variant-ligatures="normal" font-variant-position="normal" font-variant-caps="normal" font-variant-numeric="normal" font-variant-alternates="normal" font-feature-settings="normal" text-indent="0" text-align="start" text-decoration-line="none" text-decoration-style="solid" text-decoration-color="#000000" text-transform="none" text-orientation="mixed" white-space="normal" shape-padding="0" isolation="auto" mix-blend-mode="normal" solid-color="#000000" solid-opacity="1" vector-effect="none" data-original="#ff6b6b"></path></g></g></g></svg>