<svg xmlns="http://www.w3.org/2000/svg" version="1.1" xmlns:xlink="http://www.w3.org/1999/xlink" xmlns:svgjs="http://svgjs.com/svgjs" width="512" height="512" x="0" y="0" viewBox="0 0 16.933333 16.933334" style="enable-background:new 0 0 512 512" xml:space="preserve" class=""><g><g id="layer1" transform="translate(0 -280.067)"><path id="path9964-7" d="m8.4673977 281.12449c-2.0475303 0-3.7052002 1.65766-3.7052002 3.7052v6.29109a.26460982.26460982 0 0 0 .26407.26562l6.8786495.0568a.26460982.26460982 0 0 0 .26562-.26356v-6.35c0-2.04754-1.6556-3.70469-3.7031393-3.70469z" fill="#ff8a26" font-variant-ligatures="normal" font-variant-position="normal" font-variant-caps="normal" font-variant-numeric="normal" font-variant-alternates="normal" font-feature-settings="normal" text-indent="0" text-align="start" text-decoration-line="none" text-decoration-style="solid" text-decoration-color="#000000" text-transform="none" text-orientation="mixed" white-space="normal" shape-padding="0" isolation="auto" mix-blend-mode="normal" solid-color="#000000" solid-opacity="1" vector-effect="none" data-original="#ff8a26" class=""></path><path id="path9967-6" d="m8.4673977 281.12449c-.0911 0-.18027.007-.26974.0134 1.9255493.13356 3.4437093 1.73186 3.4437093 3.69176v6.35a.26460982.26460982 0 0 1 -.22014.25942l.48369.004a.26460982.26460982 0 0 0 .26562-.26355v-6.34997c0-2.04755-1.6556-3.70468-3.7031393-3.70468z" fill="#e87e23" font-variant-ligatures="normal" font-variant-position="normal" font-variant-caps="normal" font-variant-numeric="normal" font-variant-alternates="normal" font-feature-settings="normal" text-indent="0" text-align="start" text-decoration-line="none" text-decoration-style="solid" text-decoration-color="#000000" text-transform="none" text-orientation="mixed" white-space="normal" shape-padding="0" isolation="auto" mix-blend-mode="normal" solid-color="#000000" solid-opacity="1" vector-effect="none" data-original="#e87e23"></path><path id="path9923" d="m5.0259974 290.91354c-1.31463 0-2.3807299 1.06869-2.3807299 2.38332v2.38073a.26460982.26460982 0 0 0 .2635499.26355h11.1135296a.26460982.26460982 0 0 0 .26355-.26355v-2.38073c0-1.31463-1.06661-2.38332-2.38125-2.38332z" fill="#ffcf4d" font-variant-ligatures="normal" font-variant-position="normal" font-variant-caps="normal" font-variant-numeric="normal" font-variant-alternates="normal" font-feature-settings="normal" text-indent="0" text-align="start" text-decoration-line="none" text-decoration-style="solid" text-decoration-color="#000000" text-transform="none" text-orientation="mixed" white-space="normal" shape-padding="0" isolation="auto" mix-blend-mode="normal" solid-color="#000000" solid-opacity="1" vector-effect="none" data-original="#ffcf4d"></path><path id="path9925" d="m6.8775775 288.92761v1.56838l.078.076 1.5097202 1.13641 1.5877493-1.21238v-1.56838z" fill="#ffbe87" font-variant-ligatures="normal" font-variant-position="normal" font-variant-caps="normal" font-variant-numeric="normal" font-variant-alternates="normal" font-feature-settings="normal" text-indent="0" text-align="start" text-decoration-line="none" text-decoration-style="solid" text-decoration-color="#000000" text-transform="none" text-orientation="mixed" white-space="normal" shape-padding="0" isolation="auto" mix-blend-mode="normal" solid-color="#000000" solid-opacity="1" vector-effect="none" data-original="#ffbe87"></path><path id="path9927" d="m6.8775775 288.92761v.92656c.4430099.33264.9919402.53227 1.5880102.53227.59686 0 1.14507-.20027 1.5874993-.53382v-.92501z" fill="#ffb06b" font-variant-ligatures="normal" font-variant-position="normal" font-variant-caps="normal" font-variant-numeric="normal" font-variant-alternates="normal" font-feature-settings="normal" text-indent="0" text-align="start" text-decoration-line="none" text-decoration-style="solid" text-decoration-color="#000000" text-transform="none" text-orientation="mixed" white-space="normal" shape-padding="0" isolation="auto" mix-blend-mode="normal" solid-color="#000000" solid-opacity="1" vector-effect="none" data-original="#ffb06b"></path><path id="path9933" d="m10.053607 290.12082-1.5882693 1.58755.79374.79375 1.5882693-1.58755z" fill="#ffe49d" data-original="#ffe49d"></path><path id="path9935" d="m6.8785975 290.12082 1.5867402 1.58755-.79376.79375-1.5867202-1.58755z" fill="#ffe49d" data-original="#ffe49d"></path><path id="path9943" d="m11.375477 290.91354c1.31464 0 2.38125 1.06869 2.38125 2.38332v2.38073a.26460982.26460982 0 0 1 -.26355.26355h.52917a.26460982.26460982 0 0 0 .26355-.26355v-2.38073c0-1.31463-1.06661-2.38332-2.38125-2.38332z" fill="#e8bd46" font-variant-ligatures="normal" font-variant-position="normal" font-variant-caps="normal" font-variant-numeric="normal" font-variant-alternates="normal" font-feature-settings="normal" text-indent="0" text-align="start" text-decoration-line="none" text-decoration-style="solid" text-decoration-color="#000000" text-transform="none" text-orientation="mixed" white-space="normal" shape-padding="0" isolation="auto" mix-blend-mode="normal" solid-color="#000000" solid-opacity="1" vector-effect="none" data-original="#e8bd46"></path><path id="path9897-4" d="m9.2675577 284.29984s-.27234 1.32292-1.58802 1.32292c-.5330703-.00079-1.0635702.001-1.5957703.001-.008-.00053-.016899-.00053-.025299 0-.12249.0125-.2201699.10782-.2356499.22996l-.003 1.35648c-.004 1.46201 1.1851298 2.64687 2.6463502 2.64687 1.46121 0 2.6447903-1.18565 2.6447903-2.64687l.002-.79375h-.001v-.52917a.26460982.26460982 0 0 0 -.23822-.26354.26460982.26460982 0 0 0 -.0253 0h-.00053c0-.00027 0-.0008 0-.001v-.00053c-1.3232593-.003-1.5797493-1.32236-1.5797493-1.32236z" fill="#ffc99c" font-variant-ligatures="normal" font-variant-position="normal" font-variant-caps="normal" font-variant-numeric="normal" font-variant-alternates="normal" font-feature-settings="normal" text-indent="0" text-align="start" text-decoration-line="none" text-decoration-style="solid" text-decoration-color="#000000" text-transform="none" text-orientation="mixed" white-space="normal" shape-padding="0" isolation="auto" mix-blend-mode="normal" solid-color="#000000" solid-opacity="1" vector-effect="none" data-original="#ffc99c" class=""></path><path id="path10243-8" d="m10.584787 285.60209-.001.74724-.002.86093c0 1.37182-1.0430003 2.50047-2.3797103 2.63343.087.009.17535.0134.264581.0134 1.46123 0 2.6442793-1.18565 2.6442793-2.64687l.002-.79375h-.002v-.52917a.26460982.26460982 0 0 0 -.23822-.26355.26460982.26460982 0 0 0 -.0253 0h-.000449c0-.00026 0-.00079 0-.001v-.00042c-.0892-.00024-.17677-.007-.26253-.0202z" fill="#ffbe87" font-variant-ligatures="normal" font-variant-position="normal" font-variant-caps="normal" font-variant-numeric="normal" font-variant-alternates="normal" font-feature-settings="normal" text-indent="0" text-align="start" text-decoration-line="none" text-decoration-style="solid" text-decoration-color="#000000" text-transform="none" text-orientation="mixed" white-space="normal" shape-padding="0" isolation="auto" mix-blend-mode="normal" solid-color="#000000" solid-opacity="1" vector-effect="none" data-original="#ffbe87"></path></g></g></svg>