<svg xmlns="http://www.w3.org/2000/svg" version="1.1" xmlns:xlink="http://www.w3.org/1999/xlink" xmlns:svgjs="http://svgjs.com/svgjs" width="512" height="512" x="0" y="0" viewBox="0 0 16.933333 16.933334" style="enable-background:new 0 0 512 512" xml:space="preserve" class=""><g><g id="layer1" transform="translate(0 -280.067)"><path id="path8714-3-2-2" d="m12.577037 289.07423c.357426-.36026.852256-.3833 1.17977-.25171v-2.19365c0-.55279.452829-1.00558 1.00574-1.00558.545761 0 .855088.39875.998499.93754.170745.6415.42843 2.20094.635519 2.97241.142405.77103-.112319 1.36107-.602649 1.83605l-2.11511 2.11456c-.21233.21228-.18555.26983-.18555 1.13582l-3.7051993-.00053v-1.50534c0-.56099.0178-1.2464.6387203-1.87225z" fill="#fdd5a6" font-variant-ligatures="normal" font-variant-position="normal" font-variant-caps="normal" font-variant-numeric="normal" font-variant-alternates="normal" font-feature-settings="normal" text-indent="0" text-align="start" text-decoration-line="none" text-decoration-style="solid" text-decoration-color="#000000" text-transform="none" text-orientation="mixed" white-space="normal" shape-padding="0" isolation="auto" mix-blend-mode="normal" solid-color="#000000" solid-opacity="1" vector-effect="none" data-original="#fdd5a6"></path><path id="path8368" d="m4.3549156 289.07423c-.3574259-.36026-.852256-.3833-1.17977-.25171v-2.19365c0-.55279-.4528288-1.00558-1.0057399-1.00558-.545761 0-.855088.39875-.998499.93754-.170745.6415-.42843004 2.20094-.63551904 2.97241-.142405.77103.112319 1.36107.60264904 1.83605l2.1151099 2.11456c.21233.21228.18555.26983.18555 1.13582l3.7051991-.00053v-1.50534c0-.56099-.0178-1.2464-.63872-1.87225z" fill="#fdd5a6" font-variant-ligatures="normal" font-variant-position="normal" font-variant-caps="normal" font-variant-numeric="normal" font-variant-alternates="normal" font-feature-settings="normal" text-indent="0" text-align="start" text-decoration-line="none" text-decoration-style="solid" text-decoration-color="#000000" text-transform="none" text-orientation="mixed" white-space="normal" shape-padding="0" isolation="auto" mix-blend-mode="normal" solid-color="#000000" solid-opacity="1" vector-effect="none" data-original="#fdd5a6"></path><path id="path8319" d="m8.4673167 280.59673c-2.4809969 0-4.4980461 2.0151-4.4980461 4.4961s2.0170492 4.49805 4.4980461 4.49805c2.4809973 0 4.4980473-2.01705 4.4980473-4.49805s-2.01705-4.4961-4.4980473-4.4961z" fill="#ff6b6b" font-variant-ligatures="normal" font-variant-position="normal" font-variant-caps="normal" font-variant-numeric="normal" font-variant-alternates="normal" font-feature-settings="normal" text-indent="0" text-align="start" text-decoration-line="none" text-decoration-style="solid" text-decoration-color="#000000" text-transform="none" text-orientation="mixed" white-space="normal" shape-padding="0" isolation="auto" mix-blend-mode="normal" solid-color="#000000" solid-opacity="1" vector-effect="none" data-original="#ff6b6b"></path><path id="path8315" d="m7.4087237 282.71197v1.32422h-1.3242189c-.1454081.0005-.263158.11826-.2636721.26367v1.58789c.0005027.14541.118264.26316.2636721.26367h1.3242189v1.32422c.000503.14541.118263.26316.263671.26367h1.587891c.146171.00056.265108-.1175.265625-.26367v-1.32422h1.3222663c.145408-.0005.263158-.11826.263672-.26367v-1.58789c-.000514-.14541-.118264-.26316-.263672-.26367h-1.3222663v-1.32422c-.000518-.14617-.119455-.26423-.265625-.26367h-1.600586c-.148107.0135-.251168.12758-.250976.26367z" fill="#dbe9ee" font-variant-ligatures="normal" font-variant-position="normal" font-variant-caps="normal" font-variant-numeric="normal" font-variant-alternates="normal" font-feature-settings="normal" text-indent="0" text-align="start" text-decoration-line="none" text-decoration-style="solid" text-decoration-color="#000000" text-transform="none" text-orientation="mixed" white-space="normal" shape-padding="0" isolation="auto" mix-blend-mode="normal" solid-color="#000000" solid-opacity="1" vector-effect="none" data-original="#dbe9ee"></path><path id="path8710-0-0-8" d="m3.1749057 288.27287c-.2789201.0695-.54343.21116-.75913.42685-.63476.63477-.63477 1.67878 0 2.31355l1.5544299 1.55495c.24937.25998.63412-.12478.3741301-.37414l-1.55442-1.55495c-.42977-.42976-.42975-1.13551 0-1.56527.11249-.11249.2444899-.19436.38499-.24805z" fill="#fdce97" font-variant-ligatures="normal" font-variant-position="normal" font-variant-caps="normal" font-variant-numeric="normal" font-variant-alternates="normal" font-feature-settings="normal" text-indent="0" text-align="start" text-decoration-line="none" text-decoration-style="solid" text-decoration-color="#000000" text-transform="none" text-orientation="mixed" white-space="normal" shape-padding="0" isolation="auto" mix-blend-mode="normal" solid-color="#000000" solid-opacity="1" vector-effect="none" data-original="#fdce97"></path><path id="path8712-0-2-7" d="m2.9092857 294.35364a.26460982.26460982 0 0 0 -.26355.26561v1.58595a.26460982.26460982 0 0 0 .26355.26562h4.76353a.26460982.26460982 0 0 0 .26407-.26562v-1.58595a.26460982.26460982 0 0 0 -.26407-.26561z" fill="#33b9ef" font-variant-ligatures="normal" font-variant-position="normal" font-variant-caps="normal" font-variant-numeric="normal" font-variant-alternates="normal" font-feature-settings="normal" text-indent="0" text-align="start" text-decoration-line="none" text-decoration-style="solid" text-decoration-color="#000000" text-transform="none" text-orientation="mixed" white-space="normal" shape-padding="0" isolation="auto" mix-blend-mode="normal" solid-color="#000000" solid-opacity="1" vector-effect="none" data-original="#33b9ef"></path><path id="path8716-5-0-8" d="m13.757036 288.27287c.27892.0695.54343.21116.75913.42685.63476.63477.634769 1.67878 0 2.31355l-1.55443 1.55495c-.24937.25965-.63379-.12477-.374141-.37414l1.55443-1.55495c.429771-.42976.42975-1.13551 0-1.56527-.11249-.11249-.244489-.19436-.384989-.24805z" fill="#fdce97" font-variant-ligatures="normal" font-variant-position="normal" font-variant-caps="normal" font-variant-numeric="normal" font-variant-alternates="normal" font-feature-settings="normal" text-indent="0" text-align="start" text-decoration-line="none" text-decoration-style="solid" text-decoration-color="#000000" text-transform="none" text-orientation="mixed" white-space="normal" shape-padding="0" isolation="auto" mix-blend-mode="normal" solid-color="#000000" solid-opacity="1" vector-effect="none" data-original="#fdce97"></path><path id="path8718-8-9-7" d="m14.022655 294.35364a.26460982.26460982 0 0 1 .263551.26561v1.58595a.26460982.26460982 0 0 1 -.263551.26562h-4.7635393a.26460982.26460982 0 0 1 -.26406-.26562v-1.58595a.26460982.26460982 0 0 1 .26406-.26561z" fill="#33b9ef" font-variant-ligatures="normal" font-variant-position="normal" font-variant-caps="normal" font-variant-numeric="normal" font-variant-alternates="normal" font-feature-settings="normal" text-indent="0" text-align="start" text-decoration-line="none" text-decoration-style="solid" text-decoration-color="#000000" text-transform="none" text-orientation="mixed" white-space="normal" shape-padding="0" isolation="auto" mix-blend-mode="normal" solid-color="#000000" solid-opacity="1" vector-effect="none" data-original="#33b9ef"></path></g></g></svg>