<svg xmlns="http://www.w3.org/2000/svg" version="1.1" xmlns:xlink="http://www.w3.org/1999/xlink" xmlns:svgjs="http://svgjs.com/svgjs" width="512" height="512" x="0" y="0" viewBox="0 0 16.933333 16.933334" style="enable-background:new 0 0 512 512" xml:space="preserve" class=""><g><g id="layer1" transform="translate(0 -280.067)"><path id="path9781" d="m5.0266425 290.91346c-1.3146302 0-2.3807301 1.06869-2.3807301 2.38332v2.38073a.26460982.26460982 0 0 0 .2635501.26355h11.1135305a.26460982.26460982 0 0 0 .26355-.26355v-2.38073c0-1.31463-1.06661-2.38332-2.38125-2.38332z" fill="#ffcf4d" font-variant-ligatures="normal" font-variant-position="normal" font-variant-caps="normal" font-variant-numeric="normal" font-variant-alternates="normal" font-feature-settings="normal" text-indent="0" text-align="start" text-decoration-line="none" text-decoration-style="solid" text-decoration-color="#000000" text-transform="none" text-orientation="mixed" white-space="normal" shape-padding="0" isolation="auto" mix-blend-mode="normal" solid-color="#000000" solid-opacity="1" vector-effect="none" data-original="#ffcf4d"></path><path id="path9768" d="m6.8782126 288.92753v1.56838l.078.076 1.50973 1.13641 1.5877504-1.21238v-1.56838z" fill="#ffbe87" font-variant-ligatures="normal" font-variant-position="normal" font-variant-caps="normal" font-variant-numeric="normal" font-variant-alternates="normal" font-feature-settings="normal" text-indent="0" text-align="start" text-decoration-line="none" text-decoration-style="solid" text-decoration-color="#000000" text-transform="none" text-orientation="mixed" white-space="normal" shape-padding="0" isolation="auto" mix-blend-mode="normal" solid-color="#000000" solid-opacity="1" vector-effect="none" data-original="#ffbe87"></path><path id="path9863" d="m6.8782126 288.92753v.92656c.44302.33264.99194.53227 1.58801.53227.59687 0 1.14508-.20027 1.5875004-.53382v-.92501z" fill="#ffb06b" font-variant-ligatures="normal" font-variant-position="normal" font-variant-caps="normal" font-variant-numeric="normal" font-variant-alternates="normal" font-feature-settings="normal" text-indent="0" text-align="start" text-decoration-line="none" text-decoration-style="solid" text-decoration-color="#000000" text-transform="none" text-orientation="mixed" white-space="normal" shape-padding="0" isolation="auto" mix-blend-mode="normal" solid-color="#000000" solid-opacity="1" vector-effect="none" data-original="#ffb06b"></path><path id="path5560" d="m10.054243 290.12074-1.5882704 1.58755.79375.79375 1.5882704-1.58755z" fill="#ffe49d" data-original="#ffe49d"></path><path id="path5566" d="m6.8792426 290.12074 1.58673 1.58755-.79375.79375-1.58673-1.58755z" fill="#ffe49d" data-original="#ffe49d"></path><path id="path9868" d="m11.376123 290.91346c1.31464 0 2.38125 1.06869 2.38125 2.38332v2.38073a.26460982.26460982 0 0 1 -.26355.26355h.52917a.26460982.26460982 0 0 0 .26355-.26355v-2.38073c0-1.31463-1.06661-2.38332-2.38125-2.38332z" fill="#e8bd46" font-variant-ligatures="normal" font-variant-position="normal" font-variant-caps="normal" font-variant-numeric="normal" font-variant-alternates="normal" font-feature-settings="normal" text-indent="0" text-align="start" text-decoration-line="none" text-decoration-style="solid" text-decoration-color="#000000" text-transform="none" text-orientation="mixed" white-space="normal" shape-padding="0" isolation="auto" mix-blend-mode="normal" solid-color="#000000" solid-opacity="1" vector-effect="none" data-original="#e8bd46"></path><path id="path8912" d="m8.4662226 281.12488c-2.04754 0-3.7046802 1.65658-3.7046802 3.70418.0005557.86995.3234 1.55407.48318 1.84433a.26460979.26460979 0 0 0 .4046101.0729c.0485-.0417.10526-.0651.1715799-.0651.0555 0 .0779.0104.1229902.0393a.26460979.26460979 0 0 0 .4072-.22221l.002-.61082h1.32654c.68967-.00001 1.26874-.39511 1.5875-.9555.27499.48382.7489104.81565 1.3192904.90176l-.002.66197a.26460979.26460979 0 0 0 .40618.22376c.0445-.0282.067-.0382.12144-.0382.0663 0 .12309.0234.17156.0651a.26460979.26460979 0 0 0 .40463-.0729c.15991-.2905.4821-.97452.48267-1.84433-.00058-2.04748-1.65715-3.70417-3.7046904-3.70417z" fill="#ff8a26" font-variant-ligatures="normal" font-variant-position="normal" font-variant-caps="normal" font-variant-numeric="normal" font-variant-alternates="normal" font-feature-settings="normal" text-indent="0" text-align="start" text-decoration-line="none" text-decoration-style="solid" text-decoration-color="#000000" text-transform="none" text-orientation="mixed" white-space="normal" shape-padding="0" isolation="auto" mix-blend-mode="normal" solid-color="#000000" solid-opacity="1" vector-effect="none" data-original="#ff8a26" class=""></path><path id="path8914" d="m8.4662226 281.12488c-.0894 0-.17679.007-.26459.0134 1.9232104.13603 3.4395504 1.73265 3.4401104 3.69073-.00053.86982-.32276 1.55384-.48267 1.84434a.26460979.26460979 0 0 1 -.009.015c.0495.008.0949.0248.13333.0579a.26460979.26460979 0 0 0 .40462-.0729c.1599-.2905.48209-.97452.48266-1.84433-.000529-2.04748-1.65714-3.70417-3.7046904-3.70417z" fill="#e87e23" font-variant-ligatures="normal" font-variant-position="normal" font-variant-caps="normal" font-variant-numeric="normal" font-variant-alternates="normal" font-feature-settings="normal" text-indent="0" text-align="start" text-decoration-line="none" text-decoration-style="solid" text-decoration-color="#000000" text-transform="none" text-orientation="mixed" white-space="normal" shape-padding="0" isolation="auto" mix-blend-mode="normal" solid-color="#000000" solid-opacity="1" vector-effect="none" data-original="#e87e23"></path><path id="path8916" d="m11.112063 286.15197c-.16599 0-.30797.0596-.40463.12092a.26460979.26460979 0 0 0 -.123.22273l-.002.71417a.26460979.26460979 0 0 0 0 .00053c0 .24578-.0433.48033-.1204.70124a.26460979.26460979 0 0 0 .27026.3509c.4072-.0322.72515-.21088.91571-.46458.19057-.25369.25787-.56076.25787-.85215-.00002-.43514-.35859-.79374-.79375-.79374z" fill="#ffbe87" font-variant-ligatures="normal" font-variant-position="normal" font-variant-caps="normal" font-variant-numeric="normal" font-variant-alternates="normal" font-feature-settings="normal" text-indent="0" text-align="start" text-decoration-line="none" text-decoration-style="solid" text-decoration-color="#000000" text-transform="none" text-orientation="mixed" white-space="normal" shape-padding="0" isolation="auto" mix-blend-mode="normal" solid-color="#000000" solid-opacity="1" vector-effect="none" data-original="#ffbe87"></path><path id="path8918" d="m5.8209124 286.15197c-.43517 0-.7937399.3586-.79375.79374 0 .29099.0669.59795.25683.85163.18997.25368.5070901.43246.9136302.4651a.26460979.26460979 0 0 0 .27079-.3509c-.077-.22082-.11992-.45486-.11937-.70021v-.00053l.002-.7121a.26460979.26460979 0 0 0 -.12197-.22375c-.0971-.0622-.24044-.12299-.4082502-.12299z" fill="#ffc99c" font-variant-ligatures="normal" font-variant-position="normal" font-variant-caps="normal" font-variant-numeric="normal" font-variant-alternates="normal" font-feature-settings="normal" text-indent="0" text-align="start" text-decoration-line="none" text-decoration-style="solid" text-decoration-color="#000000" text-transform="none" text-orientation="mixed" white-space="normal" shape-padding="0" isolation="auto" mix-blend-mode="normal" solid-color="#000000" solid-opacity="1" vector-effect="none" data-original="#ffc99c" class=""></path><path id="path8920" d="m9.2673926 284.2999s-.27233 1.32292-1.58802 1.32292c-.53306-.0008-1.06356.001-1.59576.001-.008-.00053-.0169-.00053-.0253 0-.12248.0125-.2201603.10782-.2356503.22996l-.003 1.35648c-.004 1.46201 1.1851303 2.64686 2.6463503 2.64686s2.6448004-1.18564 2.6448004-2.64686l.002-.79375h-.001v-.52917a.26460982.26460982 0 0 0 -.23823-.26355.26460982.26460982 0 0 0 -.0253 0h-.000529c.00001-.00026 0-.00079 0-.001v-.00053c-1.3232514-.003-1.5797414-1.32236-1.5797414-1.32236z" fill="#ffc99c" font-variant-ligatures="normal" font-variant-position="normal" font-variant-caps="normal" font-variant-numeric="normal" font-variant-alternates="normal" font-feature-settings="normal" text-indent="0" text-align="start" text-decoration-line="none" text-decoration-style="solid" text-decoration-color="#000000" text-transform="none" text-orientation="mixed" white-space="normal" shape-padding="0" isolation="auto" mix-blend-mode="normal" solid-color="#000000" solid-opacity="1" vector-effect="none" data-original="#ffc99c" class=""></path><path id="path8922" d="m10.584623 285.60215-.001.74724-.002.86092c0 1.37182-1.0429794 2.50048-2.3796994 2.63343.087.009.17536.0134.26459.0134 1.46122 0 2.6442804-1.18565 2.6442804-2.64686l.002-.79375h-.002v-.52917a.26460982.26460982 0 0 0 -.23823-.26355.26460982.26460982 0 0 0 -.0253 0h-.00045c.00001-.00026 0-.00079 0-.001v-.00053c-.0892-.00023-.17676-.007-.26251-.0202z" fill="#ffbe87" font-variant-ligatures="normal" font-variant-position="normal" font-variant-caps="normal" font-variant-numeric="normal" font-variant-alternates="normal" font-feature-settings="normal" text-indent="0" text-align="start" text-decoration-line="none" text-decoration-style="solid" text-decoration-color="#000000" text-transform="none" text-orientation="mixed" white-space="normal" shape-padding="0" isolation="auto" mix-blend-mode="normal" solid-color="#000000" solid-opacity="1" vector-effect="none" data-original="#ffbe87"></path></g></g></svg>