<svg xmlns="http://www.w3.org/2000/svg" version="1.1" xmlns:xlink="http://www.w3.org/1999/xlink" xmlns:svgjs="http://svgjs.com/svgjs" width="512" height="512" x="0" y="0" viewBox="0 0 16.933333 16.933334" style="enable-background:new 0 0 512 512" xml:space="preserve" class=""><g><g id="layer1" transform="translate(0 -280.067)"><path id="path11869" d="m3.4388046 282.18383c-.43516 0-.79297.35781-.79297.79297v12.70117c0 .43516.35781.79297.79297.79297h10.0546894c.435161 0 .79492-.35781.79492-.79297v-12.70117c0-.43516-.359759-.79297-.79492-.79297z" fill="#33b9ef" font-variant-ligatures="normal" font-variant-position="normal" font-variant-caps="normal" font-variant-numeric="normal" font-variant-alternates="normal" font-feature-settings="normal" text-indent="0" text-align="start" text-decoration-line="none" text-decoration-style="solid" text-decoration-color="#000000" text-transform="none" text-orientation="mixed" white-space="normal" shape-padding="0" isolation="auto" mix-blend-mode="normal" solid-color="#000000" solid-opacity="1" vector-effect="none" data-original="#33b9ef" class=""></path><path id="path11865" d="m3.7044246 283.5061v11.64257c.0005027.14542.11827.26317.26368.26368h8.9960894c.146171.00056.2651-.11751.265621-.26368v-11.64257c-.00053-.14617-.11945-.26423-.265621-.26368h-9.0087894c-.14811.0135-.25117.12759-.25098.26368z" fill="#dbe9ee" font-variant-ligatures="normal" font-variant-position="normal" font-variant-caps="normal" font-variant-numeric="normal" font-variant-alternates="normal" font-feature-settings="normal" text-indent="0" text-align="start" text-decoration-line="none" text-decoration-style="solid" text-decoration-color="#000000" text-transform="none" text-orientation="mixed" white-space="normal" shape-padding="0" isolation="auto" mix-blend-mode="normal" solid-color="#000000" solid-opacity="1" vector-effect="none" data-original="#dbe9ee" class=""></path><g fill="#33658a"><path id="path11897" d="m8.4661547 280.59581c-.6381901 0-1.1734001.45598-1.2960501 1.05885h-.8190701c-.43516 0-.7947801.35755-.7947801.79272v1.05885c0 .43516.3596201.79271.7947801.79271h4.2323005c.43516 0 .79271-.35755.79271-.79271v-1.05885c0-.43517-.35755-.79272-.79271-.79272h-.8195904c-.1230201-.60287-.65942-1.05885-1.2975899-1.05885z" font-variant-ligatures="normal" font-variant-position="normal" font-variant-caps="normal" font-variant-numeric="normal" font-variant-alternates="normal" font-feature-settings="normal" text-indent="0" text-align="start" text-decoration-line="none" text-decoration-style="solid" text-decoration-color="#000000" text-transform="none" text-orientation="mixed" white-space="normal" shape-padding="0" isolation="auto" mix-blend-mode="normal" solid-color="#000000" solid-opacity="1" vector-effect="none" fill="#33658a" data-original="#33658a" class=""></path><path id="path1947" d="m5.5560047 290.65063h3.70507c.3528599 0 .3528599-.5293 0-.5293h-3.71777c-.3655701.0169-.3401701.54623.0127.5293z" font-variant-ligatures="normal" font-variant-position="normal" font-variant-caps="normal" font-variant-numeric="normal" font-variant-alternates="normal" font-feature-settings="normal" text-indent="0" text-align="start" text-decoration-line="none" text-decoration-style="solid" text-decoration-color="#000000" text-transform="none" text-orientation="mixed" white-space="normal" shape-padding="0" isolation="auto" mix-blend-mode="normal" solid-color="#000000" solid-opacity="1" vector-effect="none" fill="#33658a" data-original="#33658a" class=""></path><path id="path1949" d="m10.319715 290.65063h1.056639c.352861 0 .352861-.5293 0-.5293h-1.070339c-.3665005.0183-.3391005.54762.0137.5293z" font-variant-ligatures="normal" font-variant-position="normal" font-variant-caps="normal" font-variant-numeric="normal" font-variant-alternates="normal" font-feature-settings="normal" text-indent="0" text-align="start" text-decoration-line="none" text-decoration-style="solid" text-decoration-color="#000000" text-transform="none" text-orientation="mixed" white-space="normal" shape-padding="0" isolation="auto" mix-blend-mode="normal" solid-color="#000000" solid-opacity="1" vector-effect="none" fill="#33658a" data-original="#33658a" class=""></path><path id="path16816" d="m5.5560047 292.23657h5.8203093c.382491.0323.382491-.55964 0-.52735h-5.8330093c-.33967.0385-.3164502.52043.0127.52735z" font-variant-ligatures="normal" font-variant-position="normal" font-variant-caps="normal" font-variant-numeric="normal" font-variant-alternates="normal" font-feature-settings="normal" text-indent="0" text-align="start" text-decoration-line="none" text-decoration-style="solid" text-decoration-color="#000000" text-transform="none" text-orientation="mixed" white-space="normal" shape-padding="0" isolation="auto" mix-blend-mode="normal" solid-color="#000000" solid-opacity="1" vector-effect="none" fill="#33658a" data-original="#33658a" class=""></path><path id="path16820" d="m7.6731746 293.29516c-.35287 0-.35287.5293 0 .5293h3.7031304c.35286 0 .35286-.5293 0-.5293z" font-variant-ligatures="normal" font-variant-position="normal" font-variant-caps="normal" font-variant-numeric="normal" font-variant-alternates="normal" font-feature-settings="normal" text-indent="0" text-align="start" text-decoration-line="none" text-decoration-style="solid" text-decoration-color="#000000" text-transform="none" text-orientation="mixed" white-space="normal" shape-padding="0" isolation="auto" mix-blend-mode="normal" solid-color="#000000" solid-opacity="1" vector-effect="none" fill="#33658a" data-original="#33658a" class=""></path><path id="path16822" d="m5.5559946 293.29516c-.35287 0-.35287.5293 0 .5293h1.05859c.35286 0 .35286-.5293 0-.5293z" font-variant-ligatures="normal" font-variant-position="normal" font-variant-caps="normal" font-variant-numeric="normal" font-variant-alternates="normal" font-feature-settings="normal" text-indent="0" text-align="start" text-decoration-line="none" text-decoration-style="solid" text-decoration-color="#000000" text-transform="none" text-orientation="mixed" white-space="normal" shape-padding="0" isolation="auto" mix-blend-mode="normal" solid-color="#000000" solid-opacity="1" vector-effect="none" fill="#33658a" data-original="#33658a" class=""></path></g><path id="path11924" d="m7.9368546 285.35766a.26460982.26460982 0 0 0 -.26368.26562v.79297h-.79492a.26460982.26460982 0 0 0 -.26367.26563v1.05859a.26460982.26460982 0 0 0 .26367.26367h.79492v.79297a.26460982.26460982 0 0 0 .26368.26563h1.05859a.26460982.26460982 0 0 0 .26562-.26563v-.79297h.7929704a.26460982.26460982 0 0 0 .26563-.26367v-1.05859a.26460982.26460982 0 0 0 -.26563-.26563h-.7929704v-.79297a.26460982.26460982 0 0 0 -.26562-.26562z" fill="#ff6b6b" font-variant-ligatures="normal" font-variant-position="normal" font-variant-caps="normal" font-variant-numeric="normal" font-variant-alternates="normal" font-feature-settings="normal" text-indent="0" text-align="start" text-decoration-line="none" text-decoration-style="solid" text-decoration-color="#000000" text-transform="none" text-orientation="mixed" white-space="normal" shape-padding="0" isolation="auto" mix-blend-mode="normal" solid-color="#000000" solid-opacity="1" vector-effect="none" data-original="#ff6b6b"></path></g></g></svg>